# xmcd
#
# Track frame offsets: 
#        150
#        30802
#        54527
#        75215
#        96757
#        123730
#        140647
#        168985
#        201075
#        225400
#        246522
#        273312
#
# Disc length: 3867 seconds
#
# Revision: 8
# Processed by: cddbd v1.5.2PL0 Copyright (c) Steve Scherf et al.
# Submitted via: ExactAudioCopy v1.3
#
DISCID=980f190c
DTITLE=Etta James - Matriarch of the Blues
DYEAR=2000
DGENRE=Blues
TTITLE0=Gotta Serve Somebody
TTITLE1=Don't Let My Baby Ride
TTITLE2=Rhymes
TTITLE3=Try a Little Tenderness
TTITLE4=Miss You
TTITLE5=Hawg For Ya
TTITLE6=You're Gonna Make Me Cry
TTITLE7=Walking the Back Streets
TTITLE8=Let's Straighten It Out
TTITLE9=Born on the Bayou
TTITLE10=Come Back Baby
TTITLE11=Hound Dog
EXTD=YEAR: 2000
EXTT0=
EXTT1=
EXTT2=
EXTT3=
EXTT4=
EXTT5=
EXTT6=
EXTT7=
EXTT8=
EXTT9=
EXTT10=
EXTT11=
PLAYORDER=
